<svg width="220" height="160" viewBox="0 0 220 160" fill="none" xmlns="http://www.w3.org/2000/svg">
<g clip-path="url(#clip0)">
<path fill-rule="evenodd" clip-rule="evenodd" d="M214.707 90.8823C211.976 90.2966 209.237 89.7421 206.495 89.202L212.844 37.6318C213.697 32.1265 210.652 26.7916 205.896 25.4729L117.029 0.816184C113.132 -0.263383 107.024 -0.262805 103.12 0.816184L14.2597 25.4729C9.5013 26.7922 6.4559 32.1259 7.30866 37.6306L13.6529 89.1778C10.9129 89.7167 8.17646 90.2701 5.44751 90.8546C1.79176 91.6373 -0.59354 95.2543 0.129049 98.9181C2.21235 109.467 3.67141 119.658 4.82443 128.236C5.08014 130.141 6.13134 131.868 7.70784 132.973C8.87591 133.793 10.2673 134.224 11.6737 134.224C12.155 134.224 12.6375 134.173 13.1137 134.071C18.247 132.966 23.3155 131.954 28.3401 131.016L103.187 158.03C105.146 159.089 107.609 159.618 110.073 159.618C112.536 159.618 114.999 159.089 116.955 158.03L191.817 131.015C196.458 131.889 201.135 132.827 205.863 133.846C207.693 134.241 209.56 133.893 211.123 132.873C212.678 131.858 213.738 130.298 214.107 128.481C214.712 125.495 215.329 122.547 215.944 119.606C217.347 112.893 218.797 105.951 220.049 98.8373C220.696 95.1584 218.349 91.6638 214.707 90.8823Z" fill="#FFFFFE"/>
<path fill-rule="evenodd" clip-rule="evenodd" d="M18.5715 110.778V114.819L18.7728 116.446C19.4364 120.604 22.5715 125.459 25.7592 127.286L104.281 155.626C107.481 157.456 112.668 157.456 115.865 155.626L194.398 127.286C197.597 125.459 200.719 120.604 201.383 116.446L201.584 114.819V110.778H18.5715Z" fill="#FFFFFE"/>
<path fill-rule="evenodd" clip-rule="evenodd" d="M110.074 159.611C107.61 159.611 105.148 159.082 103.189 158.023L24.6503 129.677L24.4513 129.563C20.596 127.353 16.9616 121.773 16.1771 116.859L16.1644 116.768L15.9428 114.82V108.153H204.213L204.194 115.141L203.979 116.859C203.193 121.782 199.558 127.363 195.703 129.565L195.506 129.677L195.291 129.755L116.957 158.023C115.001 159.082 112.538 159.611 110.074 159.611ZM26.8904 124.904L105.389 153.236L105.586 153.349C107.979 154.715 112.17 154.716 114.558 153.349L114.756 153.236L193.269 124.903C195.704 123.39 198.242 119.344 198.78 116.075L198.956 114.657V113.403H21.2005V114.658L21.3764 116.075C21.9127 119.337 24.4525 123.385 26.8904 124.904Z" fill="#FFFFFE"/>
<path fill-rule="evenodd" clip-rule="evenodd" d="M205.897 25.4666L117.031 0.809242C113.133 -0.270325 107.025 -0.26917 103.122 0.809242L14.2613 25.4666C9.50285 26.7853 6.45745 32.1196 7.31021 37.6237L15.9338 107.692L16.1641 109.551L16.1768 109.642C16.9613 114.555 20.5951 120.135 24.4504 122.345L24.6495 122.459L103.189 150.805C105.147 151.864 107.61 152.393 110.074 152.393C112.537 152.393 115.001 151.864 116.957 150.805L195.292 122.537L195.506 122.459L195.703 122.346C199.559 120.144 203.193 114.563 203.979 109.642L212.846 37.6248C213.699 32.1196 210.653 26.7847 205.897 25.4666Z" fill="#FFFFFE"/>
<path fill-rule="evenodd" clip-rule="evenodd" d="M210.242 37.2614L206.539 67.3252L201.613 107.369L201.383 109.228C200.719 113.387 197.596 118.241 194.398 120.069L115.865 148.409C112.668 150.238 107.481 150.238 104.281 148.409L25.7597 120.069C22.5714 118.241 19.4369 113.387 18.7727 109.228L18.5425 107.369L12.9764 62.148L9.9142 37.2614C9.25178 33.0997 11.5138 28.9518 14.9642 27.9953L103.826 3.33851C107.28 2.38371 112.879 2.38371 116.329 3.33851L205.193 27.9953C208.644 28.9518 210.904 33.0997 210.242 37.2614Z" fill="#286137"/>
<mask id="mask0" mask-type="alpha" maskUnits="userSpaceOnUse" x="9" y="2" width="202" height="148">
<path d="M103.826 3.3384L14.9647 27.9952C11.5138 28.9517 9.25172 33.0996 9.91414 37.2613L12.9757 62.1485L18.5424 107.37L18.7727 109.228C19.4368 113.387 22.5713 118.242 25.759 120.069L104.281 148.409C107.481 150.238 112.668 150.238 115.865 148.409L194.398 120.069C197.596 118.242 200.719 113.387 201.383 109.228L201.613 107.37L206.539 67.3251L210.242 37.2613C210.904 33.0996 208.643 28.9517 205.193 27.9952L116.329 3.3384C114.604 2.86129 112.342 2.62215 110.079 2.62215C107.816 2.62215 105.553 2.86129 103.826 3.3384Z" fill="white"/>
</mask>
<g mask="url(#mask0)">
<path fill-rule="evenodd" clip-rule="evenodd" d="M110.128 149.78C112.206 149.773 114.28 149.315 115.864 148.409L194.398 120.068C197.596 118.241 200.719 113.387 201.383 109.229L201.614 107.369L206.539 67.325L210.242 37.2612C210.904 33.1 208.644 28.9521 205.193 27.9956L116.328 3.33828C114.604 2.86117 112.342 2.62204 110.079 2.62204L110.128 149.78Z" fill="#002F43"/>
</g>
<mask id="mask1" mask-type="alpha" maskUnits="userSpaceOnUse" x="9" y="2" width="202" height="148">
<path d="M103.826 3.3384L14.9647 27.9952C11.5138 28.9517 9.25172 33.0996 9.91414 37.2613L12.9757 62.1485L18.5424 107.37L18.7727 109.228C19.4368 113.387 22.5713 118.242 25.759 120.069L104.281 148.409C107.481 150.238 112.668 150.238 115.865 148.409L194.398 120.069C197.596 118.242 200.719 113.387 201.383 109.228L201.613 107.37L206.539 67.3251L210.242 37.2613C210.904 33.0996 208.643 28.9517 205.193 27.9952L116.329 3.3384C114.604 2.86129 112.342 2.62215 110.079 2.62215C107.816 2.62215 105.553 2.86129 103.826 3.3384Z" fill="white"/>
</mask>
<g mask="url(#mask1)">
<path fill-rule="evenodd" clip-rule="evenodd" d="M0.477081 172.419L215.022 141.031L212.383 39.7812C188.21 26.7588 154.64 26.295 154.64 26.295C154.64 26.295 127.752 24.2456 111.295 44.613C111.295 44.613 86.1337 90.3556 9.799 63.3896L0.477081 172.419Z" fill="#65B767"/>
</g>
<mask id="mask2" mask-type="alpha" maskUnits="userSpaceOnUse" x="9" y="2" width="202" height="148">
<path d="M103.826 3.3384L14.9647 27.9952C11.5138 28.9517 9.25172 33.0996 9.91414 37.2613L12.9757 62.1485L18.5424 107.37L18.7727 109.228C19.4368 113.387 22.5713 118.242 25.759 120.069L104.281 148.409C107.481 150.238 112.668 150.238 115.865 148.409L194.398 120.069C197.596 118.242 200.719 113.387 201.383 109.228L201.613 107.37L206.539 67.3251L210.242 37.2613C210.904 33.0996 208.643 28.9517 205.193 27.9952L116.329 3.3384C114.604 2.86129 112.342 2.62215 110.079 2.62215C107.816 2.62215 105.553 2.86129 103.826 3.3384Z" fill="white"/>
</mask>
<g mask="url(#mask2)">
<path fill-rule="evenodd" clip-rule="evenodd" d="M110.128 156.377L215.022 141.03L212.382 39.7815C188.21 26.7591 154.64 26.2953 154.64 26.2953C154.64 26.2953 127.752 24.2459 111.295 44.6127C111.295 44.6127 110.922 45.2914 110.128 46.4345V156.377Z" fill="#74C6CA"/>
</g>
<path fill-rule="evenodd" clip-rule="evenodd" d="M31.0772 47.6415C29.7963 44.7286 29.3572 39.779 25.4249 39.8934C20.9019 40.0251 20.2991 43.4295 19.0188 46.5042C17.3121 50.2264 16.2164 53.4662 14.9361 57.0267C13.4423 61.7192 18.1938 63.0934 23.1015 63.0934C29.0766 63.0934 33.9739 63.3389 33.334 57.6753C33.334 57.6753 32.5709 51.202 31.0772 47.6415Z" fill="#65B767"/>
<path fill-rule="evenodd" clip-rule="evenodd" d="M23.155 44.4652C23.3384 53.3773 23.5212 62.2899 23.7035 71.2014V71.2095C23.7197 71.95 26.3173 71.4844 26.3057 70.942C26.1229 62.03 25.9389 53.1173 25.7561 44.2053V44.1978C25.7405 43.4573 23.144 43.9228 23.155 44.4652Z" fill="#65B767"/>
<path fill-rule="evenodd" clip-rule="evenodd" d="M162.592 16.8213C162.001 26.3942 167.145 28.3558 163.38 38.7534C163.289 38.1215 163.098 37.4278 162.576 36.9334C161.995 38.6102 161.629 40.1137 160.765 41.5913C160.089 42.7442 158.729 43.7054 158.007 44.6446C158.154 43.9595 158.25 43.1283 157.913 42.482C156.642 44.1403 155.778 45.1043 153.865 46.1481C151.975 47.1803 150.478 47.8682 149.469 49.0853C148.892 47.7088 146.588 46.203 145.646 44.5856C144.418 42.4768 144.303 40.8207 143.901 40.1074C143.446 40.175 143.06 40.3355 142.713 40.5984C142.313 39.2161 142.478 38.1366 142.618 36.8629C142.766 35.5205 143.254 34.2024 143.546 32.8623C142.643 32.5244 141.616 33.1436 141 33.7906C141.075 32.4996 141.938 30.78 142.481 29.6779C143.386 27.8388 146.493 23.6672 147.779 19.5298L148.486 18.1441L162.592 16.8213Z" fill="#5A3B23"/>
<path fill-rule="evenodd" clip-rule="evenodd" d="M177.617 16.5347C176.027 25.9938 180.937 28.481 176.104 38.4287C176.08 37.791 175.963 37.0811 175.496 36.5347C174.742 38.1416 174.222 39.599 173.207 40.9777C172.414 42.0544 170.96 42.8683 170.145 43.7272C170.363 43.0612 170.545 42.2444 170.277 41.5663C168.84 43.0831 167.879 43.9519 165.868 44.7906C163.88 45.62 162.319 46.1474 161.188 47.2524C160.759 45.8239 158.624 44.0853 157.857 42.3785C156.857 40.1529 156.915 38.494 156.591 37.7431C156.131 37.7627 155.73 37.8817 155.358 38.1076C155.105 36.6907 155.381 35.6348 155.655 34.3825C155.942 33.0632 156.566 31.8029 156.996 30.5003C156.133 30.07 155.047 30.5789 154.366 31.1582C154.576 29.8817 155.615 28.2621 156.271 27.2224C157.363 25.4878 160.89 21.6634 162.601 17.6824L163.45 16.3782L177.617 16.5347Z" fill="#5A3B23"/>
<path fill-rule="evenodd" clip-rule="evenodd" d="M183.459 14.8654C182.574 12.8207 180.423 12.6872 178.484 13.0587C178.292 13.0956 178.063 13.1765 177.826 13.2862C175.97 9.39021 170.001 7.41014 166.309 6.41028C162.952 5.50053 157.458 5.74487 153.926 8.10905C153.705 7.86126 153.462 7.64638 153.237 7.49331C151.871 6.56739 150.216 6.18732 148.599 6.53216C146.719 6.93245 145.89 9.08349 145.929 10.7828C145.973 12.622 147.118 14.7459 148.665 15.7844C148.658 15.8353 148.669 15.8815 148.664 15.9317C144.774 21.0124 141.966 30.7557 141.982 48.7242C141.983 49.1274 142.158 49.5115 142.464 49.7755C143.028 50.2636 143.844 50.7707 144.864 51.2576C150.266 53.8361 161.418 55.8618 171.536 51.6192C173.183 50.929 174.802 50.0735 176.364 49.0269C176.938 48.6428 177.149 47.8959 176.855 47.2721C175.834 45.1008 173.976 39.6868 176.705 33.0009C178.425 28.7878 179.665 24.8542 178.87 21.4306C180.081 21.3758 181.845 20.6919 182.476 20.0247C183.721 18.7095 184.178 16.5324 183.459 14.8654Z" fill="#5A3B23"/>
<path fill-rule="evenodd" clip-rule="evenodd" d="M155.665 24.8057C155.664 24.7899 155.662 24.773 155.658 24.7578C155.667 24.7601 155.675 24.7601 155.683 24.7619C155.677 24.7765 155.671 24.7911 155.665 24.8057Z" fill="#DEAF82"/>
<path fill-rule="evenodd" clip-rule="evenodd" d="M159.71 14.3473C159.711 14.4288 159.694 14.5056 159.683 14.5836C159.68 14.6275 159.689 14.5506 159.71 14.3473Z" fill="#201818"/>
<path fill-rule="evenodd" clip-rule="evenodd" d="M176.799 19.4018C177.11 19.3955 177.4 19.329 177.693 19.2193C177.972 19.1147 178.295 19.001 178.446 18.7318C178.492 18.6503 178.43 18.5227 178.344 18.4961C178.073 18.4135 177.821 18.54 177.566 18.6347C177.242 18.7555 176.95 18.9259 176.697 19.1592C176.592 19.2557 176.661 19.4047 176.799 19.4018Z" fill="#7E5338"/>
<path fill-rule="evenodd" clip-rule="evenodd" d="M153.173 34.1744C152.44 35.1165 151.28 36.5825 150.954 37.796C151.668 37.3016 152.766 36.914 153.558 37.4125C153.018 38.6295 152.295 39.7882 151.89 41.0359C151.506 42.22 151.137 43.2141 151.245 44.6073C151.627 44.4254 152.025 44.348 152.472 44.3734C152.714 45.1301 152.498 46.7277 153.251 48.9747C153.829 50.6977 155.725 52.5819 156.003 54.004C157.202 53.044 158.761 52.6836 160.762 52.0724C162.787 51.4538 163.798 50.7069 165.333 49.3784C165.527 50.0589 165.272 50.8306 164.997 51.4538C165.868 50.7012 167.352 50.0542 168.221 49.0896C169.334 47.8541 169.977 46.4955 170.859 45.0145C171.259 45.5875 171.304 46.2841 171.266 46.9028C176.891 37.751 172.384 34.8773 174.829 25.8873C172.493 24.9464 163.145 22.3893 161.458 22.1634C160.693 27.0449 154.765 32.1267 153.173 34.1744Z" fill="#FADABC"/>
<mask id="mask3" mask-type="alpha" maskUnits="userSpaceOnUse" x="141" y="5" width="43" height="50">
<path d="M153.925 8.10952C153.705 7.86114 153.462 7.64684 153.237 7.4932C151.871 6.56728 150.216 6.18721 148.599 6.53204C146.719 6.93233 145.89 9.08338 145.929 10.7822C145.973 12.6219 147.118 14.7458 148.665 15.7843C148.658 15.8351 148.669 15.8819 148.664 15.9316C144.775 21.0123 141.966 30.7556 141.982 48.7241C141.983 49.1273 142.158 49.5114 142.464 49.7759C143.028 50.264 143.844 50.7706 144.864 51.2575C150.266 53.836 161.418 55.8623 171.536 51.6197C173.183 50.9294 174.802 50.0734 176.364 49.0268C176.938 48.6426 177.148 47.8958 176.855 47.2714C175.834 45.1013 173.975 39.6867 176.705 33.0008C178.425 28.7876 179.665 24.8546 178.87 21.4305C180.08 21.3762 181.845 20.6918 182.475 20.0246C183.721 18.7099 184.178 16.5323 183.459 14.8653C182.574 12.8206 180.422 12.6877 178.484 13.0585C178.292 13.0955 178.063 13.177 177.825 13.2861C175.97 9.39067 170.001 7.41002 166.309 6.41017C165.153 6.0971 163.742 5.92035 162.247 5.92035C159.399 5.92035 156.242 6.55919 153.925 8.10952Z" fill="white"/>
</mask>
<g mask="url(#mask3)">
<path fill-rule="evenodd" clip-rule="evenodd" d="M158.839 22.484C162.032 31.5301 167.534 31.3342 168.126 42.3748C167.796 41.8284 167.35 41.2635 166.676 41.0116C166.795 42.782 167.046 44.3087 166.826 46.0057C166.654 47.3302 165.776 48.7448 165.479 49.8908C165.347 49.2023 165.11 48.3999 164.548 47.9355C164.025 49.9578 163.605 51.1818 162.251 52.8875C160.913 54.5735 159.803 55.7894 159.348 57.3028C158.281 56.2596 155.57 55.7698 154.072 54.6469C152.117 53.1826 151.365 51.7022 150.717 51.202C150.323 51.4411 150.031 51.7392 149.814 52.1163C148.906 50.9992 148.636 49.941 148.269 48.713C147.881 47.4197 147.816 46.0155 147.561 44.668C146.598 44.7084 145.894 45.6776 145.579 46.514C145.144 45.2953 145.268 43.3758 145.337 42.1495C145.453 40.1042 146.686 35.0529 146.254 30.7428L146.366 29.1913L158.839 22.484Z" fill="#FADABC"/>
</g>
<path fill-rule="evenodd" clip-rule="evenodd" d="M122.554 56.785C122.637 59.5298 126.535 62.013 133.53 63.7776C140.584 65.5567 149.918 66.3728 159.813 66.076C169.709 65.7791 178.977 64.4043 185.911 62.2048C192.788 60.0243 196.529 57.3112 196.446 54.5663C196.381 52.4165 193.912 50.3931 189.428 48.77C191.681 50.0101 192.88 51.4206 192.925 52.9109C193.003 55.5165 189.571 58.054 183.26 60.0554C177.006 62.039 168.653 63.2785 159.737 63.546C150.822 63.814 142.408 63.0775 136.047 61.4729C129.627 59.8533 126.048 57.5266 125.969 54.921C125.925 53.4308 127.036 51.9509 129.211 50.5779C124.832 52.4673 122.489 54.6345 122.554 56.785Z" fill="#002F43"/>
<path fill-rule="evenodd" clip-rule="evenodd" d="M133.323 53.8483C133.376 55.6025 136.19 57.2562 141.042 58.3854C146.028 59.5459 152.627 60.0686 159.626 59.8584C166.625 59.6487 173.182 58.7303 178.088 57.2735C182.864 55.8549 185.573 54.0354 185.52 52.2812C185.481 50.9833 183.939 49.7356 181.143 48.7155C181.941 49.3244 182.355 49.9788 182.376 50.6702C182.481 54.1457 172.457 57.1719 159.557 57.5589C146.656 57.9465 136.469 55.5274 136.364 52.0519C136.343 51.3605 136.717 50.6818 137.477 50.0267C134.748 51.2126 133.284 52.5509 133.323 53.8483Z" fill="#002F43"/>
<path fill-rule="evenodd" clip-rule="evenodd" d="M157.152 54.0349C158.55 54.1441 160.911 54.0106 160.911 54.0106C164.058 51.0388 165.625 49.1662 168.156 46.5495C173.533 40.9911 175.451 33.8142 176.734 28.8652C177.296 26.6991 148.543 18.8037 146.681 22.9729C144.8 27.1849 146.712 34.4877 150.398 42.5091C152.139 46.2983 152.895 49.7443 153.447 53.6889C153.447 53.6889 155.337 53.9534 156.941 54.0251L157.152 54.0349Z" fill="#FADABC"/>
<path fill-rule="evenodd" clip-rule="evenodd" d="M176.816 28.7261C177.364 26.53 178.076 20.9779 174.944 19.2422C173.709 18.5583 172.524 20.4656 172.291 21.5301C170.657 18.0684 169.731 16.8318 167.649 16.3165C164.904 15.6367 160.973 17.8056 158.43 19.5743C158.519 19.3895 158.607 19.2185 158.663 19.0833C158.961 18.3757 159.13 18.0297 159.271 17.2696C159.458 16.2443 158.984 15.6575 158.194 14.951C157.3 14.3884 156.001 14.4012 155.013 14.4658C150.248 14.7731 148.21 18.8072 146.365 23.0406" fill="#FFFFFE"/>
<path fill-rule="evenodd" clip-rule="evenodd" d="M146.289 23.3773C146.444 19.5587 176.747 28.6972 176.847 28.7567C171.577 43.1665 145.47 39.3999 146.289 23.3773Z" fill="#FFFFFE"/>
<path fill-rule="evenodd" clip-rule="evenodd" d="M169.466 27.4227C167.57 27.1454 166.134 25.9261 165.808 24.3093C164.239 25.9832 161.023 26.5378 159.12 26.0335C156.384 25.3086 154.937 22.2201 157.362 20.0667C157.67 19.7906 158.355 20.0061 158.173 20.497C157.802 21.5038 156.814 22.7486 157.627 23.812C158.227 24.5958 159.342 24.9147 160.294 24.9349C161.405 24.9597 162.615 24.813 163.606 24.2775C164.67 23.7022 165.153 22.9028 165.895 22.0081C166.061 21.8065 166.278 21.8088 166.445 21.9139C166.617 21.9717 166.764 22.1357 166.716 22.3408C166.711 22.3627 166.709 22.3847 166.705 22.4055C166.704 22.417 166.708 22.4274 166.706 22.4384C166.696 22.5355 166.669 22.625 166.648 22.7186C166.414 24.5456 167.595 26.0635 169.49 26.3547C170.369 26.4892 171.364 26.3945 172.079 25.8163C172.978 25.0897 173.022 24.0898 173.107 23.0253C173.145 22.5534 173.905 22.3044 174.011 22.8653C174.534 25.6552 172.198 27.8224 169.466 27.4227Z" fill="#3D2817"/>
<path fill-rule="evenodd" clip-rule="evenodd" d="M170.75 19.2612C168.812 17.8368 165.983 16.9813 163.664 17.9742C163.195 18.0308 162.773 18.4392 162.955 19.0347C163.457 20.6833 164.478 22.1833 166.343 22.3139C168.066 22.434 169.552 21.5023 170.789 20.3979C171.087 20.1299 171.084 19.5061 170.75 19.2612Z" fill="#3D2817"/>
<path fill-rule="evenodd" clip-rule="evenodd" d="M153.098 20.9417C148.99 20.4502 144.524 20.8262 140.991 23.1436C140.633 23.3776 140.314 22.8421 140.643 22.592C144.159 19.9211 149.026 19.7894 153.237 20.3301C153.64 20.3809 153.494 20.9891 153.098 20.9417ZM152.702 22.3413C149.323 22.5175 146.011 23.4209 143.045 25.055C142.684 25.2554 143.026 25.7955 143.386 25.5956C146.239 24.0245 149.484 23.1309 152.727 22.8964C153.084 22.871 153.063 22.3217 152.702 22.3413ZM152.136 24.8025C148.582 25.0492 145.297 26.5279 142.279 28.3404C141.894 28.5703 142.258 29.1312 142.644 28.9221C145.645 27.3042 148.754 25.8636 152.163 25.394C152.534 25.3432 152.523 24.776 152.136 24.8025ZM186.531 34.2373C184.151 30.2477 179.53 26.4106 174.805 25.7776C174.433 25.7273 174.296 26.2651 174.674 26.3546C179.327 27.4486 183.344 30.6503 185.949 34.603C186.194 34.9744 186.759 34.618 186.531 34.2373ZM184.463 36.6258C182.937 32.5755 178.656 28.9897 174.483 27.9517C174.086 27.8518 173.986 28.4179 174.346 28.5524C178.244 29.9999 182.075 33.1127 183.867 36.9019C184.028 37.2438 184.596 36.9747 184.463 36.6258ZM182.446 39.4579C180.742 35.3701 177.105 32.4144 173.739 29.7059C173.395 29.4304 172.943 29.8983 173.267 30.2079C176.405 33.2086 179.705 35.8691 181.805 39.7536C181.996 40.1071 182.601 39.831 182.446 39.4579Z" fill="#3D2817"/>
<path fill-rule="evenodd" clip-rule="evenodd" d="M158.335 16.9358C157.365 16.9791 156.541 16.1144 156.49 15.0025C156.44 13.8906 157.185 12.9554 158.154 12.9121C159.123 12.8688 159.95 13.7341 159.999 14.8454C160.05 15.9573 159.304 16.8931 158.335 16.9358Z" fill="#FFFFFE"/>
<path fill-rule="evenodd" clip-rule="evenodd" d="M158.264 16.7112C157.446 16.7949 156.713 16.178 156.626 15.3318C156.539 14.4862 157.132 13.7335 157.95 13.6498C158.767 13.566 159.5 14.1829 159.587 15.0286C159.674 15.8748 159.081 16.6274 158.264 16.7112Z" fill="#000308"/>
<path fill-rule="evenodd" clip-rule="evenodd" d="M158.645 14.5186C158.422 14.5411 158.222 14.3794 158.199 14.1558C158.176 13.9329 158.339 13.733 158.562 13.7105C158.785 13.6874 158.986 13.8503 159.008 14.0732C159.031 14.2962 158.868 14.4955 158.645 14.5186Z" fill="#FFFFFE"/>
<path fill-rule="evenodd" clip-rule="evenodd" d="M173.003 19.6333C173.667 20.3409 174.862 20.297 175.677 19.5374C176.49 18.7761 176.612 17.5874 175.948 16.8804C175.285 16.1734 174.089 16.2167 173.275 16.9769C172.462 17.7376 172.34 18.9269 173.003 19.6333Z" fill="#FFFFFE"/>
<path fill-rule="evenodd" clip-rule="evenodd" d="M173.212 19.5226C173.738 20.1528 174.695 20.2227 175.349 19.678C176.003 19.1333 176.105 18.1814 175.579 17.5512C175.052 16.921 174.096 16.8511 173.442 17.3958C172.788 17.9405 172.685 18.8924 173.212 19.5226Z" fill="#000308"/>
<path fill-rule="evenodd" clip-rule="evenodd" d="M174.473 17.6877C174.617 17.8599 174.873 17.883 175.046 17.7391C175.218 17.5959 175.241 17.3389 175.098 17.1673C174.954 16.9952 174.697 16.9721 174.525 17.1153C174.352 17.2592 174.329 17.5156 174.473 17.6877Z" fill="#FFFFFE"/>
<path fill-rule="evenodd" clip-rule="evenodd" d="M151.461 13.5789C150.214 15.1021 147.849 12.4416 147.31 11.1899C147.007 10.4823 146.732 9.45589 147.226 8.8026C147.779 8.07191 148.872 7.71899 149.877 8.16144C150.913 8.61776 151.59 9.64592 151.942 10.5609C152.198 11.2205 152.186 12.6923 151.461 13.5789ZM182.067 15.414C180.616 14.3616 178.764 15.6658 177.758 16.8881C177.344 17.3912 177.002 18.4621 177.136 19.0253C177.591 20.9378 179.974 20.3584 181.178 19.652C182.543 18.8508 183.713 16.6074 182.067 15.414Z" fill="#FADABC"/>
<path fill-rule="evenodd" clip-rule="evenodd" d="M98.3726 27.0453C98.6844 32.7048 98.9962 38.3642 99.3081 44.0237C99.5991 49.3061 99.8901 54.5884 100.182 59.8701C100.203 60.26 102.885 60.0139 102.868 59.7286C102.557 54.0691 102.245 48.4096 101.933 42.7501C101.642 37.4678 101.353 32.1861 101.06 26.9037C101.039 26.5139 98.3569 26.7593 98.3726 27.0453Z" fill="#65B767"/>
<path fill-rule="evenodd" clip-rule="evenodd" d="M106.987 44.4031C107.628 42.3815 108.01 40.0479 108.032 37.5526C108.102 29.8437 104.763 23.5638 100.575 23.5262C99.367 23.5153 97.6222 24.6376 96.0775 26.7188C96.0578 26.7026 96.0381 26.687 96.0185 26.6708C95.9253 26.5963 95.7633 26.7898 95.8565 26.8643C95.8802 26.8834 95.9039 26.9025 95.9276 26.9215C94.2348 29.2932 92.8174 32.8386 92.6849 37.3781C92.4605 45.0836 96.1342 51.4044 100.322 51.4427C103.092 51.4674 105.532 48.7474 106.893 44.6792C106.908 44.6758 106.923 44.6723 106.938 44.6694C107.068 44.6405 107.134 44.4014 106.987 44.4031Z" fill="#65B767"/>
<path fill-rule="evenodd" clip-rule="evenodd" d="M80.7434 66.2558C77.9775 66.5579 75.6321 68.3398 72.8227 67.0119L72.6636 67.1696C72.0388 67.266 70.0122 67.7836 69.6547 68.3543C67.6182 71.6114 73.9144 69.9722 75.0489 69.7099C77.4365 69.1583 81.4319 70.648 83.1195 69.766C86.2962 68.1059 83.4255 65.9635 80.7434 66.2558Z" fill="#DB7C45"/>
<path fill-rule="evenodd" clip-rule="evenodd" d="M74.1333 42.9783L70.4613 42.5907C70.4613 42.5907 68.6013 42.9743 66.4064 46.6046C64.2108 50.2343 62.1495 64.6026 63.0202 67.772C63.8903 70.9419 65.9505 73.5129 65.9505 73.5129L65.4905 72.8573C72.8373 73.4511 78.3062 70.1806 78.3913 62.6618C78.4688 55.7494 73.9788 49.4471 74.1333 42.9783Z" fill="#FADABC"/>
<path fill-rule="evenodd" clip-rule="evenodd" d="M68.5849 42.1797L68.858 42.0209C65.8154 42.2871 62.1082 46.4928 59.7079 51.1316C57.2583 55.8658 55.3405 60.9973 56.4964 66.4079C58.0561 73.7107 63.6257 75.4326 68.674 73.0528C72.3471 71.3205 73.9606 66.0775 70.9019 61.5824C70.1082 60.4151 68.5641 59.5689 67.6355 58.4962C72.2325 55.7861 73.6852 44.8957 68.5849 42.1797Z" fill="#DB7C45"/>
<path fill-rule="evenodd" clip-rule="evenodd" d="M75.057 69.8435C71.9914 70.0347 69.5239 71.8599 66.4224 70.3951L66.2471 70.5684C65.5575 70.6747 63.3197 71.2459 62.9257 71.8761C60.6775 75.4712 68.2158 73.5425 69.4944 73.4143C71.7837 73.1827 75.7836 74.0716 77.7865 73.4345C81.4654 72.2648 78.1394 69.6511 75.057 69.8435Z" fill="#DB7C45"/>
<path fill-rule="evenodd" clip-rule="evenodd" d="M56.6683 47.8267C60.2448 39.0279 53.646 25.1778 39.7126 30.6744C35.8168 32.2103 33.3511 38.0378 34.0418 42.1695C36.57 38.0956 41.8509 39.5027 43.5043 43.5368C46.0545 49.756 39.8098 56.4234 40.9813 63.7897C42.7679 75.0233 56.6347 78.6934 62.6376 70.0234L63.1577 69.7225C50.994 73.1674 53.6426 55.2693 56.6683 47.8267Z" fill="#DB7C45"/>
<path fill-rule="evenodd" clip-rule="evenodd" d="M85.2403 46.1415C85.2403 46.1415 79.9311 44.6489 79.3479 45.5546C78.7648 46.4597 77.9566 48.7488 78.42 51.1384C79.1692 54.9911 81.3711 55.9124 81.3711 55.9124C81.3711 55.9124 83.6094 56.7425 86.7931 54.443C88.7699 53.0163 89.7448 50.7947 89.9409 49.736C90.1347 48.676 85.2403 46.1415 85.2403 46.1415Z" fill="#836C51"/>
<path fill-rule="evenodd" clip-rule="evenodd" d="M86.972 43.5378C87.046 43.409 87.1247 43.2929 87.2051 43.2075C87.5968 42.7933 88.1354 42.7396 88.3743 42.4664C88.6121 42.1914 87.8091 41.2736 87.4452 41.1298C87.0807 40.9859 86.4762 41.4492 86.0949 42.0008C85.9358 42.2336 85.7622 42.6316 85.6141 43.0151C84.4334 42.657 82.8835 42.4768 81.1201 43.3455C78.7834 44.4961 78.5526 46.311 78.8609 46.4311C79.1698 46.553 79.3573 46.0124 80.8308 46.0395C82.8754 46.0759 87.0096 47.7077 88.5265 49.0772C89.6199 50.0632 89.3879 50.5865 89.6951 50.7078C90.0035 50.8291 91.0761 49.3469 90.1608 46.9146C89.433 44.9807 88.1099 44.0681 86.972 43.5378Z" fill="#5A3B23"/>
<path fill-rule="evenodd" clip-rule="evenodd" d="M80.4421 49.5493C79.3602 49.0907 77.8311 49.4609 76.1383 49.6769C73.4973 50.016 72.6492 49.3633 71.6564 48.0145L68.0776 49.7821C63.3984 52.2156 68.5295 53.7665 71.5031 54.0021C73.9445 54.1951 78.8679 53.2426 80.5422 52.23C81.9034 51.4063 81.4094 49.9588 80.4421 49.5493Z" fill="#DB7C45"/>
<path fill-rule="evenodd" clip-rule="evenodd" d="M73.1162 15.198C62.2612 13.7731 56.7263 26.8047 57.0353 33.2353C57.3702 40.2066 63.1133 42.8699 69.6028 43.4279C76.9663 44.0598 82.6799 41.9637 84.8471 36.8546C87.4916 30.6175 83.9712 16.6224 73.1162 15.198Z" fill="#FADABC"/>
<path fill-rule="evenodd" clip-rule="evenodd" d="M61.4413 7.96673C60.1303 11.5688 60.0447 15.8986 63.1162 18.7202L67.0375 16.8771C67.6733 13.0804 65.3447 8.70204 61.4413 7.96673Z" fill="#DB7C45"/>
<path fill-rule="evenodd" clip-rule="evenodd" d="M78.0017 18.4896L81.5938 20.9122C85.0622 18.5948 85.6436 14.3037 84.9019 10.5434C80.9314 10.6716 77.9566 14.6416 78.0017 18.4896Z" fill="#DB7C45"/>
<path fill-rule="evenodd" clip-rule="evenodd" d="M57.4241 29.2946C57.5948 26.0622 61.1296 20.2826 62.2572 19.114C64.3203 16.9746 65.7492 16.0515 68.3561 14.7865C70.2219 13.8808 72.8195 12.8752 73.8209 10.8587C73.7741 12.6378 73.0596 14.0137 71.6474 14.8455C73.3379 14.76 74.8172 13.8641 75.8556 12.2716C75.8053 13.4742 74.9867 14.7432 74.3515 15.3179C77.9771 16.1139 84.632 20.7233 85.5646 29.5683C83.4223 24.68 79.0636 21.9276 76.4255 22.753C73.9789 23.5184 72.5175 25.7676 71.5502 28.6182C71.0677 30.0408 70.6182 32.0694 70.3422 33.5568C70.2155 33.5608 70.0732 33.5429 69.8522 33.5013C69.7458 31.1395 69.3205 27.0805 68.0096 25.1802C66.3243 22.7369 63.4496 22.7571 61.3223 24.6517C59.7874 26.0195 57.4241 29.2946 57.4241 29.2946Z" fill="#DB7C45"/>
<path fill-rule="evenodd" clip-rule="evenodd" d="M68.3946 32.9853C67.9972 33.69 68.9621 35.2767 70.11 35.5424C71.2595 35.8087 72.4889 33.932 72.3784 33.1089C72.2424 32.1056 68.9269 32.0392 68.3946 32.9853Z" fill="#3D2817"/>
<path fill-rule="evenodd" clip-rule="evenodd" d="M69.9011 35.2115C69.7871 35.2017 69.6836 35.2872 69.6732 35.4033C69.6616 35.5378 69.6599 35.7077 69.6587 35.8931C69.6541 36.3546 69.6489 36.9871 69.4464 37.2366C69.2647 37.4602 68.9575 37.5901 68.7331 37.5399C68.5959 37.5093 68.5097 37.4139 68.4698 37.2488C68.4421 37.1361 68.3281 37.0674 68.2147 37.0945C68.1019 37.1217 68.0325 37.236 68.0602 37.3487C68.1383 37.6698 68.3443 37.8836 68.6405 37.95C68.7226 37.969 68.8088 37.9748 68.8956 37.9696C69.215 37.9494 69.5505 37.7767 69.7738 37.5017C70.0689 37.1373 70.0747 36.4499 70.0799 35.8971C70.0816 35.7238 70.0822 35.565 70.0932 35.4385C70.103 35.323 70.0174 35.2213 69.9011 35.2115Z" fill="#3D2817"/>
<path fill-rule="evenodd" clip-rule="evenodd" d="M71.5893 37.297C71.4863 37.2422 71.359 37.282 71.3046 37.3843C71.2011 37.5795 71.0437 37.6742 70.8314 37.6615C70.5253 37.6453 70.195 37.4056 70.0793 37.1157C69.9509 36.7939 70.1302 36.1915 70.2615 35.7513C70.3107 35.5861 70.3558 35.4336 70.3853 35.3048C70.4108 35.1916 70.3396 35.079 70.2257 35.0536C70.1129 35.0276 69.9995 35.0986 69.974 35.2124C69.9468 35.3331 69.904 35.4764 69.8577 35.6312C69.7009 36.158 69.5054 36.8142 69.6876 37.271C69.8652 37.7158 70.3367 38.0566 70.8088 38.0814C70.8487 38.0838 70.8869 38.0838 70.9257 38.0814C71.2468 38.0612 71.517 37.8839 71.6772 37.5812C71.7316 37.4784 71.6923 37.3513 71.5893 37.297Z" fill="#3D2817"/>
<path fill-rule="evenodd" clip-rule="evenodd" d="M66.3605 29.4539C66.3409 30.1835 65.6461 30.7553 64.8072 30.7339C63.9683 30.7114 63.3042 30.1026 63.3238 29.3731C63.3435 28.6447 64.0389 28.0717 64.8778 28.0936C65.7166 28.1162 66.3802 28.7255 66.3605 29.4539Z" fill="#FFFFFE"/>
<path fill-rule="evenodd" clip-rule="evenodd" d="M66.1877 29.4956C66.2068 30.1131 65.7029 30.6301 65.0619 30.6497C64.4214 30.6693 63.8869 30.1847 63.8678 29.5667C63.8487 28.9492 64.3526 28.4322 64.993 28.4126C65.634 28.393 66.1686 28.8782 66.1877 29.4956Z" fill="#000308"/>
<path fill-rule="evenodd" clip-rule="evenodd" d="M64.5587 29.0919C64.5639 29.26 64.4314 29.4015 64.2619 29.4067C64.093 29.4119 63.9518 29.2791 63.9466 29.1104C63.9408 28.9417 64.0744 28.8002 64.2434 28.7956C64.4123 28.7898 64.5535 28.9233 64.5587 29.0919Z" fill="#FFFFFE"/>
<path fill-rule="evenodd" clip-rule="evenodd" d="M75.5465 30.4924C75.6107 31.2196 76.3397 31.7475 77.1756 31.6747C78.0116 31.6008 78.637 30.9527 78.5722 30.2261C78.508 29.4994 77.7785 28.9703 76.9431 29.0437C76.1071 29.1176 75.4823 29.7663 75.5465 30.4924Z" fill="#FFFFFE"/>
<path fill-rule="evenodd" clip-rule="evenodd" d="M75.7216 30.5234C75.7407 31.1409 76.2753 31.6261 76.9163 31.6065C77.5567 31.5868 78.0606 31.0699 78.0415 30.4524C78.0225 29.8343 77.4879 29.3497 76.8474 29.3694C76.2064 29.389 75.7025 29.906 75.7216 30.5234Z" fill="#000308"/>
<path fill-rule="evenodd" clip-rule="evenodd" d="M77.3226 30.0206C77.3278 30.1892 77.469 30.3221 77.6385 30.3169C77.8068 30.3117 77.9399 30.1702 77.9347 30.0021C77.9295 29.8328 77.7883 29.7 77.6194 29.7052C77.4499 29.7104 77.3174 29.8519 77.3226 30.0206Z" fill="#FFFFFE"/>
<path fill-rule="evenodd" clip-rule="evenodd" d="M59.3423 32.9046L54.4317 30.6484L54.5497 30.3931L59.4603 32.6487L59.3423 32.9046Z" fill="#3D2817"/>
<path fill-rule="evenodd" clip-rule="evenodd" d="M59.1341 33.4646L54.8854 32.8627L54.9253 32.5843L59.1735 33.1856L59.1341 33.4646Z" fill="#3D2817"/>
<path fill-rule="evenodd" clip-rule="evenodd" d="M82.2103 33.3972L82.1103 33.1344L88.7634 30.6079L88.8635 30.8707L82.2103 33.3972Z" fill="#3D2817"/>
<path fill-rule="evenodd" clip-rule="evenodd" d="M82.1443 33.5432L82.153 33.8245L87.7931 33.6426L87.7838 33.3613L82.1443 33.5432Z" fill="#3D2817"/>
<path fill-rule="evenodd" clip-rule="evenodd" d="M18.5715 110.778V114.819L18.7728 116.446C19.4364 120.604 22.5715 125.459 25.7592 127.286L104.281 155.626C107.481 157.456 112.668 157.456 115.865 155.626L194.398 127.286C197.597 125.459 200.719 120.604 201.383 116.446L201.584 114.819V110.778H18.5715Z" fill="#FFFFFE"/>
<path fill-rule="evenodd" clip-rule="evenodd" d="M110.074 159.611C107.61 159.611 105.148 159.082 103.189 158.023L24.6504 129.677L24.4513 129.563C20.596 127.353 16.9616 121.773 16.1771 116.859L16.1644 116.768L15.9428 114.82V108.153H204.213L204.194 115.141L203.979 116.859C203.193 121.782 199.558 127.363 195.703 129.565L195.506 129.677L195.291 129.755L116.957 158.023C115.001 159.082 112.538 159.611 110.074 159.611ZM26.8904 124.904L105.389 153.236L105.586 153.349C107.979 154.715 112.17 154.716 114.558 153.349L114.756 153.236L193.269 124.903C195.704 123.39 198.242 119.344 198.78 116.075L198.956 114.657V113.403H21.2006V114.658L21.3764 116.075C21.9127 119.337 24.4525 123.385 26.8904 124.904Z" fill="#FFFFFE"/>
<path fill-rule="evenodd" clip-rule="evenodd" d="M206.42 131.273C138.558 116.657 80.3987 116.897 12.5609 131.499C10.1253 132.023 7.762 130.345 7.43108 127.879C6.04144 117.539 4.61651 108.06 2.71024 98.4041C2.26014 96.1277 3.72788 93.901 6.00037 93.4141C74.6047 78.7149 145.555 78.7241 214.156 93.4424C216.406 93.9247 217.86 96.1144 217.462 98.377C215.679 108.501 213.543 118.035 211.532 127.953C211.058 130.29 208.755 131.777 206.42 131.273Z" fill="#FFFFFE"/>
<path fill-rule="evenodd" clip-rule="evenodd" d="M11.675 134.217C10.2674 134.217 8.87545 133.786 7.70681 132.965C6.13204 131.861 5.08143 130.133 4.82514 128.228C3.6727 119.651 2.21363 109.461 0.130332 98.9109C-0.592257 95.2482 1.79304 91.6312 5.44822 90.8479C39.7489 83.4983 74.9307 79.7721 110.012 79.7721H110.08C145.185 79.7768 180.387 83.5128 214.709 90.8757C218.351 91.6578 220.698 95.1518 220.05 98.8312C218.798 105.946 217.347 112.887 215.944 119.601C215.329 122.541 214.713 125.49 214.109 128.474C213.74 130.291 212.68 131.851 211.125 132.867C209.561 133.887 207.694 134.233 205.865 133.839C138.702 119.374 81.0568 119.439 13.115 134.064C12.6388 134.166 12.1563 134.217 11.675 134.217ZM110.012 85.0209C75.2981 85.0209 40.4918 88.7079 6.55148 95.9801C5.68368 96.1661 5.1173 97.0261 5.28912 97.896C7.39903 108.584 8.87314 118.875 10.0366 127.53C10.1205 128.159 10.5075 128.515 10.7302 128.671C10.9483 128.825 11.4036 129.063 12.0076 128.933C80.7248 114.142 139.032 114.075 206.974 128.708C207.419 128.803 207.87 128.721 208.247 128.474C208.616 128.232 208.868 127.863 208.956 127.432C209.563 124.438 210.181 121.479 210.798 118.529C212.193 111.855 213.634 104.955 214.872 97.9226C215.026 97.0498 214.456 96.1909 213.604 96.0084C179.645 88.7223 144.813 85.0256 110.079 85.0209H110.012Z" fill="#FFFFFE"/>
<path fill-rule="evenodd" clip-rule="evenodd" d="M206.42 131.273C138.558 116.657 80.3987 116.897 12.5609 131.499C10.1253 132.023 7.762 130.345 7.43108 127.879C6.04144 117.539 4.61651 108.06 2.71024 98.4041C2.26014 96.1277 3.72788 93.901 6.00037 93.4141C74.6047 78.7149 145.555 78.7241 214.156 93.4424C216.406 93.9247 217.86 96.1144 217.462 98.377C215.679 108.501 213.543 118.035 211.532 127.953C211.058 130.29 208.755 131.777 206.42 131.273Z" fill="#002F43"/>
<mask id="mask4" mask-type="alpha" maskUnits="userSpaceOnUse" x="9" y="9" width="202" height="148">
<path d="M103.826 10.5563L14.9647 35.2131C11.5138 36.1696 9.25172 40.3175 9.91414 44.4792L12.9757 69.3658L18.5424 114.587L18.7727 116.446C19.4368 120.605 22.5713 125.459 25.759 127.286L104.281 155.627C107.481 157.455 112.668 157.455 115.865 155.627L194.398 127.286C197.596 125.459 200.719 120.605 201.383 116.446L201.613 114.587L206.539 74.5424L210.242 44.4792C210.904 40.3175 208.643 36.1696 205.193 35.2131L116.329 10.5563C114.604 10.0786 112.342 9.84006 110.079 9.84006C107.816 9.84006 105.553 10.0786 103.826 10.5563Z" fill="white"/>
</mask>
<g mask="url(#mask4)">
<path fill-rule="evenodd" clip-rule="evenodd" d="M18.5713 167.247H201.584V110.779H18.5713V167.247Z" fill="#002F43"/>
</g>
<path fill-rule="evenodd" clip-rule="evenodd" d="M28.0252 102.052L28.1999 102.958C28.7021 105.568 28.2242 107.388 26.6061 108.563C28.9081 108.985 30.1137 110.746 30.6298 113.428L31.0278 115.494C31.7816 119.408 30.1166 121.908 26.1241 122.674L19.8436 123.88L14.9584 98.5085L20.9839 97.3521C25.1227 96.5579 27.2714 98.1371 28.0252 102.052ZM19.6492 101.367L20.9405 108.072L22.5014 107.772C23.9899 107.486 24.7721 106.66 24.381 104.631L24.1085 103.217C23.7597 101.405 22.9891 100.726 21.5734 100.997L19.6492 101.367ZM21.6388 111.697L23.1395 119.489L25.4259 119.05C26.7692 118.792 27.3767 118.037 27.0139 116.152L26.5876 113.941C26.1346 111.585 25.232 111.006 23.4172 111.355L21.6388 111.697Z" fill="#FFFFFE"/>
<path fill-rule="evenodd" clip-rule="evenodd" d="M41.1987 104.879L46.715 104.031L47.2779 107.679L41.7616 108.526L42.914 116.004L49.8558 114.937L50.4182 118.584L39.459 120.269L35.5209 94.7369L46.4801 93.0526L47.043 96.6997L40.1018 97.7665L41.1987 104.879Z" fill="#FFFFFE"/>
<path fill-rule="evenodd" clip-rule="evenodd" d="M54.8328 91.9395L58.8721 91.4751L61.4119 113.474L68.0581 112.709L68.4816 116.376L57.7955 117.604L54.8328 91.9395Z" fill="#FFFFFE"/>
<path fill-rule="evenodd" clip-rule="evenodd" d="M78.0972 100.553L83.6638 100.144L83.9357 103.824L78.3691 104.234L78.9262 111.778L85.9299 111.264L86.2024 114.944L75.1432 115.758L73.2409 89.9946L84.2996 89.1802L84.5715 92.8608L77.5678 93.3766L78.0972 100.553Z" fill="#FFFFFE"/>
<path fill-rule="evenodd" clip-rule="evenodd" d="M97.2257 99.5141L102.804 99.3506L102.912 103.039L97.3333 103.202L97.5555 110.764L104.575 110.559L104.684 114.247L93.6 114.571L92.8421 88.7519L103.925 88.4273L104.034 92.116L97.0145 92.3216L97.2257 99.5141Z" fill="#FFFFFE"/>
<path fill-rule="evenodd" clip-rule="evenodd" d="M116.374 99.9255L121.621 100.005L121.564 103.694L116.317 103.615L116.155 114.278L112.09 114.216L112.483 88.3899L123.237 88.5528L123.181 92.242L116.492 92.1409L116.374 99.9255Z" fill="#FFFFFE"/>
<path fill-rule="evenodd" clip-rule="evenodd" d="M142.877 95.9456L142.677 99.2976C142.431 103.423 140.305 105.551 136.246 105.311L134.329 105.197L133.751 114.884L129.693 114.643L131.23 88.8589L137.206 89.2135C141.265 89.4544 143.123 91.8203 142.877 95.9456ZM135.069 92.7826L134.548 101.513L136.466 101.627C137.758 101.704 138.493 101.156 138.603 99.3143L138.834 95.4466C138.944 93.6051 138.278 92.9738 136.986 92.897L135.069 92.7826Z" fill="#FFFFFE"/>
<path fill-rule="evenodd" clip-rule="evenodd" d="M161.087 117.248L157.007 116.824L156.795 112.089L151.832 111.573L150.646 116.162L146.934 115.775L153.732 90.5108L159.651 91.1265L161.087 117.248ZM152.711 108.14L156.607 108.545L156.015 95.3489L152.711 108.14Z" fill="#FFFFFE"/>
<path fill-rule="evenodd" clip-rule="evenodd" d="M176.231 119.377C176.109 118.688 176.023 118.265 176.333 116.184L176.931 112.169C177.284 109.796 176.61 108.8 174.782 108.529L173.392 108.323L171.844 118.726L167.822 118.129L171.627 92.5766L177.695 93.4771C181.864 94.0963 183.368 96.297 182.78 100.239L182.481 102.247C182.09 104.875 180.993 106.466 179.077 107.04C180.963 108.178 181.333 110.21 180.937 112.875L180.349 116.817C180.164 118.059 180.065 118.977 180.326 119.986L176.231 119.377ZM175.104 96.8244L173.936 104.672L175.508 104.906C177.007 105.128 178.02 104.607 178.324 102.562L178.698 100.044C178.971 98.2182 178.468 97.3234 177.042 97.112L175.104 96.8244Z" fill="#FFFFFE"/>
<path fill-rule="evenodd" clip-rule="evenodd" d="M194.514 112.066L192.839 114.152L191.357 121.946L187.363 121.19L192.186 95.8126L196.18 96.5693L194.079 107.626L201.409 97.5593L205.403 98.316L197.698 108.574L200.58 123.694L196.477 122.917L194.514 112.066Z" fill="#FFFFFE"/>
<path fill-rule="evenodd" clip-rule="evenodd" d="M76.191 126.193H78.9356C80.6706 126.193 81.5222 127.153 81.5222 128.917V134.493C81.5222 136.256 80.6706 137.217 78.9356 137.217H76.191V126.193ZM77.926 127.768V135.642H78.9038C79.4563 135.642 79.7877 135.359 79.7877 134.572V128.839C79.7877 128.051 79.4563 127.768 78.9038 127.768H77.926Z" fill="#FFFFFE"/>
<path fill-rule="evenodd" clip-rule="evenodd" d="M88.0519 131.343L87.4213 137.217H85.0395L83.809 126.193H85.4971L86.4274 134.886L87.264 126.193H88.9359L89.8032 134.95L90.7028 126.193H92.2168L90.9863 137.217H88.6837L88.0519 131.343Z" fill="#FFFFFE"/>
<path fill-rule="evenodd" clip-rule="evenodd" d="M94.6607 137.217H96.3957V126.193H94.6607V137.217Z" fill="#FFFFFE"/>
<path fill-rule="evenodd" clip-rule="evenodd" d="M100.78 129.233V137.217H99.2185V126.193H101.396L103.178 132.791V126.193H104.724V137.217H102.941L100.78 129.233Z" fill="#FFFFFE"/>
<path fill-rule="evenodd" clip-rule="evenodd" d="M110.149 131.075H112.578V134.572C112.578 136.335 111.695 137.343 109.991 137.343C108.288 137.343 107.404 136.335 107.404 134.572V128.838C107.404 127.074 108.288 126.066 109.991 126.066C111.695 126.066 112.578 127.074 112.578 128.838V129.91H110.937V128.729C110.937 127.941 110.59 127.641 110.038 127.641C109.486 127.641 109.139 127.941 109.139 128.729V134.681C109.139 135.469 109.486 135.752 110.038 135.752C110.59 135.752 110.937 135.469 110.937 134.681V132.65H110.149V131.075Z" fill="#FFFFFE"/>
<path fill-rule="evenodd" clip-rule="evenodd" d="M117.01 130.839H119.392V132.414H117.01V135.642H120.007V137.217H115.275V126.193H120.007V127.768H117.01V130.839Z" fill="#FFFFFE"/>
<path fill-rule="evenodd" clip-rule="evenodd" d="M122.656 126.193H124.392V135.642H127.247V137.217H122.656V126.193Z" fill="#FFFFFE"/>
<path fill-rule="evenodd" clip-rule="evenodd" d="M129.439 128.839C129.439 127.074 130.369 126.067 132.073 126.067C133.776 126.067 134.707 127.074 134.707 128.839V134.571C134.707 136.335 133.776 137.343 132.073 137.343C130.369 137.343 129.439 136.335 129.439 134.571V128.839ZM131.174 134.682C131.174 135.469 131.521 135.768 132.073 135.768C132.625 135.768 132.972 135.469 132.972 134.682V128.728C132.972 127.941 132.625 127.642 132.073 127.642C131.521 127.642 131.174 127.941 131.174 128.728V134.682Z" fill="#FFFFFE"/>
<path fill-rule="evenodd" clip-rule="evenodd" d="M137.262 128.839C137.262 127.074 138.193 126.067 139.896 126.067C141.6 126.067 142.531 127.074 142.531 128.839V134.571C142.531 136.335 141.6 137.343 139.896 137.343C138.193 137.343 137.262 136.335 137.262 134.571V128.839ZM138.997 134.682C138.997 135.469 139.344 135.768 139.896 135.768C140.448 135.768 140.795 135.469 140.795 134.682V128.728C140.795 127.941 140.448 127.642 139.896 127.642C139.344 127.642 138.997 127.941 138.997 128.728V134.682Z" fill="#FFFFFE"/>
</g>
<defs>
<clipPath id="clip0">
<path d="M0 0H220V160H0V0Z" fill="white"/>
</clipPath>
</defs>
</svg>
